<mxfile host="Electron" agent="Mozilla/5.0 (Macintosh; Intel Mac OS X 10_15_7) AppleWebKit/537.36 (KHTML, like Gecko) draw.io/24.7.17 Chrome/128.0.6613.36 Electron/32.0.1 Safari/537.36" version="24.7.17">
  <diagram name="Page-1" id="vkETiyNCBuiqzKz_siwL">
    <mxGraphModel dx="1594" dy="1351" grid="1" gridSize="10" guides="1" tooltips="1" connect="1" arrows="1" fold="1" page="1" pageScale="1" pageWidth="850" pageHeight="1100" math="0" shadow="0">
      <root>
        <mxCell id="0" />
        <mxCell id="1" parent="0" />
        <mxCell id="JfuMzWa7tCH9gueAkN5g-5" value="" style="edgeStyle=orthogonalEdgeStyle;rounded=0;orthogonalLoop=1;jettySize=auto;html=1;" parent="1" source="JfuMzWa7tCH9gueAkN5g-1" target="JfuMzWa7tCH9gueAkN5g-3" edge="1">
          <mxGeometry relative="1" as="geometry" />
        </mxCell>
        <mxCell id="JfuMzWa7tCH9gueAkN5g-1" value="start main" style="html=1;dashed=0;whiteSpace=wrap;shape=mxgraph.dfd.start" parent="1" vertex="1">
          <mxGeometry x="52.5" y="10" width="80" height="30" as="geometry" />
        </mxCell>
        <mxCell id="JfuMzWa7tCH9gueAkN5g-2" value="end main" style="html=1;dashed=0;whiteSpace=wrap;shape=mxgraph.dfd.start" parent="1" vertex="1">
          <mxGeometry x="500.01" y="530" width="80" height="30" as="geometry" />
        </mxCell>
        <mxCell id="JfuMzWa7tCH9gueAkN5g-7" value="" style="edgeStyle=orthogonalEdgeStyle;rounded=0;orthogonalLoop=1;jettySize=auto;html=1;" parent="1" source="JfuMzWa7tCH9gueAkN5g-3" target="JfuMzWa7tCH9gueAkN5g-6" edge="1">
          <mxGeometry relative="1" as="geometry" />
        </mxCell>
        <mxCell id="JfuMzWa7tCH9gueAkN5g-3" value="&lt;div&gt;n := 0;&lt;/div&gt;" style="rounded=0;whiteSpace=wrap;html=1;" parent="1" vertex="1">
          <mxGeometry x="62.5" y="60" width="60" height="20" as="geometry" />
        </mxCell>
        <mxCell id="JfuMzWa7tCH9gueAkN5g-13" value="" style="edgeStyle=orthogonalEdgeStyle;rounded=0;orthogonalLoop=1;jettySize=auto;html=1;" parent="1" source="JfuMzWa7tCH9gueAkN5g-6" target="JfuMzWa7tCH9gueAkN5g-12" edge="1">
          <mxGeometry relative="1" as="geometry" />
        </mxCell>
        <mxCell id="JfuMzWa7tCH9gueAkN5g-6" value="&lt;div&gt;&lt;span style=&quot;background-color: initial;&quot;&gt;MainWhileNLess1&lt;/span&gt;&lt;br&gt;&lt;/div&gt;n &amp;lt; 1" style="strokeWidth=2;html=1;shape=mxgraph.flowchart.loop_limit;whiteSpace=wrap;" parent="1" vertex="1">
          <mxGeometry x="27.5" y="100" width="130" height="40" as="geometry" />
        </mxCell>
        <mxCell id="JfuMzWa7tCH9gueAkN5g-8" value="" style="group" parent="1" vertex="1" connectable="0">
          <mxGeometry x="38.75" y="280" width="107.5" height="40" as="geometry" />
        </mxCell>
        <mxCell id="JfuMzWa7tCH9gueAkN5g-9" value="" style="strokeWidth=2;html=1;shape=mxgraph.flowchart.loop_limit;whiteSpace=wrap;rotation=-180;" parent="JfuMzWa7tCH9gueAkN5g-8" vertex="1">
          <mxGeometry width="107.5" height="40" as="geometry" />
        </mxCell>
        <mxCell id="JfuMzWa7tCH9gueAkN5g-10" value="MainWhileNLess1" style="text;whiteSpace=wrap;html=1;align=center;verticalAlign=middle;" parent="JfuMzWa7tCH9gueAkN5g-8" vertex="1">
          <mxGeometry width="107.5" height="40" as="geometry" />
        </mxCell>
        <mxCell id="JfuMzWa7tCH9gueAkN5g-15" value="" style="edgeStyle=orthogonalEdgeStyle;rounded=0;orthogonalLoop=1;jettySize=auto;html=1;" parent="1" source="JfuMzWa7tCH9gueAkN5g-12" target="JfuMzWa7tCH9gueAkN5g-14" edge="1">
          <mxGeometry relative="1" as="geometry" />
        </mxCell>
        <mxCell id="JfuMzWa7tCH9gueAkN5g-12" value="&lt;div&gt;Write(&#39;Введите число элементов массива: &#39;);&lt;/div&gt;" style="shape=parallelogram;perimeter=parallelogramPerimeter;whiteSpace=wrap;html=1;fixedSize=1;" parent="1" vertex="1">
          <mxGeometry x="32.5" y="160" width="120" height="60" as="geometry" />
        </mxCell>
        <mxCell id="JfuMzWa7tCH9gueAkN5g-16" value="" style="edgeStyle=orthogonalEdgeStyle;rounded=0;orthogonalLoop=1;jettySize=auto;html=1;" parent="1" source="JfuMzWa7tCH9gueAkN5g-14" target="JfuMzWa7tCH9gueAkN5g-10" edge="1">
          <mxGeometry relative="1" as="geometry" />
        </mxCell>
        <mxCell id="JfuMzWa7tCH9gueAkN5g-14" value="&lt;div&gt;ReadLn(n);&lt;/div&gt;" style="shape=parallelogram;perimeter=parallelogramPerimeter;whiteSpace=wrap;html=1;fixedSize=1;" parent="1" vertex="1">
          <mxGeometry x="32.5" y="240" width="120" height="20" as="geometry" />
        </mxCell>
        <mxCell id="JfuMzWa7tCH9gueAkN5g-20" value="" style="edgeStyle=orthogonalEdgeStyle;rounded=0;orthogonalLoop=1;jettySize=auto;html=1;" parent="1" source="JfuMzWa7tCH9gueAkN5g-17" target="JfuMzWa7tCH9gueAkN5g-19" edge="1">
          <mxGeometry relative="1" as="geometry" />
        </mxCell>
        <mxCell id="JfuMzWa7tCH9gueAkN5g-17" value="&lt;div&gt;SetLength(arr, n);&lt;/div&gt;&lt;div&gt;SetLength(dArr, n);&lt;/div&gt;&lt;div&gt;SetLength(resArr, n);&lt;/div&gt;&lt;div&gt;SetLength(pArr, n);&lt;/div&gt;&lt;div&gt;SetLength(prevArr, n);&lt;/div&gt;" style="whiteSpace=wrap;html=1;" parent="1" vertex="1">
          <mxGeometry x="22.5" y="340" width="140" height="80" as="geometry" />
        </mxCell>
        <mxCell id="JfuMzWa7tCH9gueAkN5g-18" value="" style="edgeStyle=orthogonalEdgeStyle;rounded=0;orthogonalLoop=1;jettySize=auto;html=1;" parent="1" source="JfuMzWa7tCH9gueAkN5g-10" target="JfuMzWa7tCH9gueAkN5g-17" edge="1">
          <mxGeometry relative="1" as="geometry" />
        </mxCell>
        <mxCell id="JfuMzWa7tCH9gueAkN5g-22" value="" style="edgeStyle=orthogonalEdgeStyle;rounded=0;orthogonalLoop=1;jettySize=auto;html=1;" parent="1" source="JfuMzWa7tCH9gueAkN5g-19" target="JfuMzWa7tCH9gueAkN5g-21" edge="1">
          <mxGeometry relative="1" as="geometry" />
        </mxCell>
        <mxCell id="JfuMzWa7tCH9gueAkN5g-19" value="&lt;div&gt;FillRand(arr);&lt;/div&gt;" style="shape=process;whiteSpace=wrap;html=1;backgroundOutline=1;" parent="1" vertex="1">
          <mxGeometry x="47.5" y="440" width="90" height="30" as="geometry" />
        </mxCell>
        <mxCell id="JfuMzWa7tCH9gueAkN5g-24" value="" style="edgeStyle=orthogonalEdgeStyle;rounded=0;orthogonalLoop=1;jettySize=auto;html=1;" parent="1" source="JfuMzWa7tCH9gueAkN5g-21" target="JfuMzWa7tCH9gueAkN5g-23" edge="1">
          <mxGeometry relative="1" as="geometry" />
        </mxCell>
        <mxCell id="JfuMzWa7tCH9gueAkN5g-21" value="&lt;div&gt;i := 1;&lt;/div&gt;" style="rounded=0;whiteSpace=wrap;html=1;" parent="1" vertex="1">
          <mxGeometry x="57.5" y="490" width="70" height="30" as="geometry" />
        </mxCell>
        <mxCell id="JfuMzWa7tCH9gueAkN5g-26" value="" style="edgeStyle=orthogonalEdgeStyle;rounded=0;orthogonalLoop=1;jettySize=auto;html=1;" parent="1" source="JfuMzWa7tCH9gueAkN5g-23" target="JfuMzWa7tCH9gueAkN5g-25" edge="1">
          <mxGeometry relative="1" as="geometry" />
        </mxCell>
        <mxCell id="JfuMzWa7tCH9gueAkN5g-23" value="MainWhileIN1&lt;div&gt;i &amp;lt; n&lt;br&gt;&lt;/div&gt;" style="strokeWidth=2;html=1;shape=mxgraph.flowchart.loop_limit;whiteSpace=wrap;" parent="1" vertex="1">
          <mxGeometry x="50" y="540" width="85" height="40" as="geometry" />
        </mxCell>
        <mxCell id="JfuMzWa7tCH9gueAkN5g-30" value="" style="edgeStyle=orthogonalEdgeStyle;rounded=0;orthogonalLoop=1;jettySize=auto;html=1;" parent="1" source="JfuMzWa7tCH9gueAkN5g-25" target="JfuMzWa7tCH9gueAkN5g-29" edge="1">
          <mxGeometry relative="1" as="geometry" />
        </mxCell>
        <mxCell id="JfuMzWa7tCH9gueAkN5g-25" value="&lt;div&gt;dArr[i] := INF;&lt;/div&gt;&lt;div&gt;pArr[i] := -1;&lt;/div&gt;&lt;div&gt;Inc(i);&lt;/div&gt;" style="whiteSpace=wrap;html=1;strokeWidth=2;" parent="1" vertex="1">
          <mxGeometry x="32.5" y="600" width="120" height="60" as="geometry" />
        </mxCell>
        <mxCell id="JfuMzWa7tCH9gueAkN5g-27" value="" style="group" parent="1" vertex="1" connectable="0">
          <mxGeometry x="42.5" y="680" width="100" height="40" as="geometry" />
        </mxCell>
        <mxCell id="JfuMzWa7tCH9gueAkN5g-28" value="" style="strokeWidth=2;html=1;shape=mxgraph.flowchart.loop_limit;whiteSpace=wrap;rotation=-180;" parent="JfuMzWa7tCH9gueAkN5g-27" vertex="1">
          <mxGeometry width="100" height="40" as="geometry" />
        </mxCell>
        <mxCell id="JfuMzWa7tCH9gueAkN5g-29" value="MainWhileIN1" style="text;whiteSpace=wrap;html=1;align=center;verticalAlign=middle;" parent="JfuMzWa7tCH9gueAkN5g-27" vertex="1">
          <mxGeometry width="100" height="40" as="geometry" />
        </mxCell>
        <mxCell id="HiKmaF0sgnkghninCBEj-2" value="" style="edgeStyle=orthogonalEdgeStyle;rounded=0;orthogonalLoop=1;jettySize=auto;html=1;" parent="1" source="JfuMzWa7tCH9gueAkN5g-31" target="HiKmaF0sgnkghninCBEj-1" edge="1">
          <mxGeometry relative="1" as="geometry" />
        </mxCell>
        <mxCell id="JfuMzWa7tCH9gueAkN5g-31" value="&lt;div&gt;dArr[0] := arr[0];&lt;/div&gt;&lt;div&gt;pArr[0] := 0;&lt;/div&gt;&lt;div&gt;prevArr[0] := -1;&lt;/div&gt;&lt;div&gt;i := 1;&lt;br&gt;&lt;/div&gt;" style="whiteSpace=wrap;html=1;" parent="1" vertex="1">
          <mxGeometry x="32.5" y="740" width="120" height="60" as="geometry" />
        </mxCell>
        <mxCell id="JfuMzWa7tCH9gueAkN5g-32" value="" style="edgeStyle=orthogonalEdgeStyle;rounded=0;orthogonalLoop=1;jettySize=auto;html=1;" parent="1" source="JfuMzWa7tCH9gueAkN5g-29" target="JfuMzWa7tCH9gueAkN5g-31" edge="1">
          <mxGeometry relative="1" as="geometry" />
        </mxCell>
        <mxCell id="HiKmaF0sgnkghninCBEj-4" value="" style="edgeStyle=orthogonalEdgeStyle;rounded=0;orthogonalLoop=1;jettySize=auto;html=1;" parent="1" source="HiKmaF0sgnkghninCBEj-1" target="HiKmaF0sgnkghninCBEj-3" edge="1">
          <mxGeometry relative="1" as="geometry" />
        </mxCell>
        <mxCell id="HiKmaF0sgnkghninCBEj-1" value="MainWhileIN2&lt;div&gt;i &amp;lt; n&lt;br&gt;&lt;/div&gt;" style="strokeWidth=2;html=1;shape=mxgraph.flowchart.loop_limit;whiteSpace=wrap;" parent="1" vertex="1">
          <mxGeometry x="50" y="820" width="85" height="40" as="geometry" />
        </mxCell>
        <mxCell id="HiKmaF0sgnkghninCBEj-6" value="" style="edgeStyle=orthogonalEdgeStyle;rounded=0;orthogonalLoop=1;jettySize=auto;html=1;" parent="1" source="HiKmaF0sgnkghninCBEj-3" target="HiKmaF0sgnkghninCBEj-5" edge="1">
          <mxGeometry relative="1" as="geometry" />
        </mxCell>
        <mxCell id="HiKmaF0sgnkghninCBEj-3" value="j := 0;" style="whiteSpace=wrap;html=1;strokeWidth=2;" parent="1" vertex="1">
          <mxGeometry x="62.5" y="880" width="60" height="20" as="geometry" />
        </mxCell>
        <mxCell id="HiKmaF0sgnkghninCBEj-8" value="" style="edgeStyle=orthogonalEdgeStyle;rounded=0;orthogonalLoop=1;jettySize=auto;html=1;" parent="1" source="HiKmaF0sgnkghninCBEj-5" target="HiKmaF0sgnkghninCBEj-7" edge="1">
          <mxGeometry relative="1" as="geometry" />
        </mxCell>
        <mxCell id="HiKmaF0sgnkghninCBEj-5" value="MainWhileJ&lt;div&gt;(j &amp;lt; n) and (arr[i] &amp;gt; dArr[j])&lt;br&gt;&lt;/div&gt;" style="strokeWidth=2;html=1;shape=mxgraph.flowchart.loop_limit;whiteSpace=wrap;" parent="1" vertex="1">
          <mxGeometry x="20" y="920" width="145" height="40" as="geometry" />
        </mxCell>
        <mxCell id="HiKmaF0sgnkghninCBEj-13" style="edgeStyle=orthogonalEdgeStyle;rounded=0;orthogonalLoop=1;jettySize=auto;html=1;exitX=0.5;exitY=1;exitDx=0;exitDy=0;" parent="1" source="HiKmaF0sgnkghninCBEj-7" target="HiKmaF0sgnkghninCBEj-12" edge="1">
          <mxGeometry relative="1" as="geometry" />
        </mxCell>
        <mxCell id="HiKmaF0sgnkghninCBEj-7" value="Inc(j);" style="whiteSpace=wrap;html=1;strokeWidth=2;" parent="1" vertex="1">
          <mxGeometry x="62.5" y="980" width="60" height="20" as="geometry" />
        </mxCell>
        <mxCell id="HiKmaF0sgnkghninCBEj-10" value="" style="group" parent="1" vertex="1" connectable="0">
          <mxGeometry x="42.5" y="1020" width="100" height="40" as="geometry" />
        </mxCell>
        <mxCell id="HiKmaF0sgnkghninCBEj-11" value="" style="strokeWidth=2;html=1;shape=mxgraph.flowchart.loop_limit;whiteSpace=wrap;rotation=-180;" parent="HiKmaF0sgnkghninCBEj-10" vertex="1">
          <mxGeometry width="100" height="40" as="geometry" />
        </mxCell>
        <mxCell id="HiKmaF0sgnkghninCBEj-12" value="MainWhileJ" style="text;whiteSpace=wrap;html=1;align=center;verticalAlign=middle;" parent="HiKmaF0sgnkghninCBEj-10" vertex="1">
          <mxGeometry width="100" height="40" as="geometry" />
        </mxCell>
        <mxCell id="HiKmaF0sgnkghninCBEj-14" value="1" style="ellipse;whiteSpace=wrap;html=1;aspect=fixed;" parent="1" vertex="1">
          <mxGeometry x="152.5" y="1060" width="30" height="30" as="geometry" />
        </mxCell>
        <mxCell id="HiKmaF0sgnkghninCBEj-15" style="edgeStyle=orthogonalEdgeStyle;rounded=0;orthogonalLoop=1;jettySize=auto;html=1;exitX=0.5;exitY=0;exitDx=0;exitDy=0;exitPerimeter=0;entryX=0;entryY=0.5;entryDx=0;entryDy=0;" parent="1" source="HiKmaF0sgnkghninCBEj-11" target="HiKmaF0sgnkghninCBEj-14" edge="1">
          <mxGeometry relative="1" as="geometry">
            <Array as="points">
              <mxPoint x="92" y="1075" />
            </Array>
          </mxGeometry>
        </mxCell>
        <mxCell id="HiKmaF0sgnkghninCBEj-18" value="" style="edgeStyle=orthogonalEdgeStyle;rounded=0;orthogonalLoop=1;jettySize=auto;html=1;" parent="1" source="HiKmaF0sgnkghninCBEj-16" target="HiKmaF0sgnkghninCBEj-17" edge="1">
          <mxGeometry relative="1" as="geometry" />
        </mxCell>
        <mxCell id="HiKmaF0sgnkghninCBEj-16" value="1" style="ellipse;whiteSpace=wrap;html=1;aspect=fixed;" parent="1" vertex="1">
          <mxGeometry x="250" y="10" width="30" height="30" as="geometry" />
        </mxCell>
        <mxCell id="HiKmaF0sgnkghninCBEj-20" value="true" style="edgeStyle=orthogonalEdgeStyle;rounded=0;orthogonalLoop=1;jettySize=auto;html=1;" parent="1" source="HiKmaF0sgnkghninCBEj-17" target="HiKmaF0sgnkghninCBEj-19" edge="1">
          <mxGeometry x="-0.8455" y="15" relative="1" as="geometry">
            <mxPoint as="offset" />
          </mxGeometry>
        </mxCell>
        <mxCell id="S6T1LPdI9VMm4ds6aZC9-7" style="edgeStyle=orthogonalEdgeStyle;rounded=0;orthogonalLoop=1;jettySize=auto;html=1;exitX=1;exitY=0.5;exitDx=0;exitDy=0;" edge="1" parent="1" source="HiKmaF0sgnkghninCBEj-17">
          <mxGeometry relative="1" as="geometry">
            <mxPoint x="265" y="370" as="targetPoint" />
            <mxPoint x="312.5" y="112.5" as="sourcePoint" />
            <Array as="points">
              <mxPoint x="440" y="113" />
              <mxPoint x="440" y="370" />
            </Array>
          </mxGeometry>
        </mxCell>
        <mxCell id="S6T1LPdI9VMm4ds6aZC9-8" value="false" style="edgeLabel;html=1;align=center;verticalAlign=middle;resizable=0;points=[];" vertex="1" connectable="0" parent="S6T1LPdI9VMm4ds6aZC9-7">
          <mxGeometry x="-0.9205" relative="1" as="geometry">
            <mxPoint y="-12" as="offset" />
          </mxGeometry>
        </mxCell>
        <mxCell id="HiKmaF0sgnkghninCBEj-17" value="(j = 0) or (arr[i] &amp;gt; dArr[j - 1])" style="rhombus;whiteSpace=wrap;html=1;" parent="1" vertex="1">
          <mxGeometry x="212.5" y="60" width="105" height="105" as="geometry" />
        </mxCell>
        <mxCell id="HiKmaF0sgnkghninCBEj-22" value="" style="edgeStyle=orthogonalEdgeStyle;rounded=0;orthogonalLoop=1;jettySize=auto;html=1;" parent="1" source="HiKmaF0sgnkghninCBEj-19" target="HiKmaF0sgnkghninCBEj-21" edge="1">
          <mxGeometry relative="1" as="geometry" />
        </mxCell>
        <mxCell id="HiKmaF0sgnkghninCBEj-19" value="dArr[j] := arr[i];&lt;div&gt;pArr[j] := i;&lt;br&gt;&lt;/div&gt;" style="whiteSpace=wrap;html=1;" parent="1" vertex="1">
          <mxGeometry x="212.5" y="180" width="105" height="40" as="geometry" />
        </mxCell>
        <mxCell id="HiKmaF0sgnkghninCBEj-24" value="" style="edgeStyle=orthogonalEdgeStyle;rounded=0;orthogonalLoop=1;jettySize=auto;html=1;" parent="1" source="HiKmaF0sgnkghninCBEj-21" target="HiKmaF0sgnkghninCBEj-23" edge="1">
          <mxGeometry relative="1" as="geometry" />
        </mxCell>
        <mxCell id="HiKmaF0sgnkghninCBEj-25" value="true" style="edgeLabel;html=1;align=center;verticalAlign=middle;resizable=0;points=[];" parent="HiKmaF0sgnkghninCBEj-24" vertex="1" connectable="0">
          <mxGeometry x="-0.7753" relative="1" as="geometry">
            <mxPoint x="15" as="offset" />
          </mxGeometry>
        </mxCell>
        <mxCell id="S6T1LPdI9VMm4ds6aZC9-4" style="edgeStyle=orthogonalEdgeStyle;rounded=0;orthogonalLoop=1;jettySize=auto;html=1;exitX=1;exitY=0.5;exitDx=0;exitDy=0;" edge="1" parent="1" source="HiKmaF0sgnkghninCBEj-21" target="S6T1LPdI9VMm4ds6aZC9-3">
          <mxGeometry relative="1" as="geometry" />
        </mxCell>
        <mxCell id="S6T1LPdI9VMm4ds6aZC9-5" value="false" style="edgeLabel;html=1;align=center;verticalAlign=middle;resizable=0;points=[];" vertex="1" connectable="0" parent="S6T1LPdI9VMm4ds6aZC9-4">
          <mxGeometry x="-0.4588" relative="1" as="geometry">
            <mxPoint x="-11" y="-8" as="offset" />
          </mxGeometry>
        </mxCell>
        <mxCell id="HiKmaF0sgnkghninCBEj-21" value="j &amp;gt; 0" style="rhombus;whiteSpace=wrap;html=1;" parent="1" vertex="1">
          <mxGeometry x="240" y="235" width="50" height="50" as="geometry" />
        </mxCell>
        <mxCell id="S6T1LPdI9VMm4ds6aZC9-2" value="" style="edgeStyle=orthogonalEdgeStyle;rounded=0;orthogonalLoop=1;jettySize=auto;html=1;" edge="1" parent="1" source="HiKmaF0sgnkghninCBEj-23" target="S6T1LPdI9VMm4ds6aZC9-1">
          <mxGeometry relative="1" as="geometry" />
        </mxCell>
        <mxCell id="HiKmaF0sgnkghninCBEj-23" value="prevArr[i] := pArr[j - 1]" style="whiteSpace=wrap;html=1;" parent="1" vertex="1">
          <mxGeometry x="197.5" y="305" width="135" height="25" as="geometry" />
        </mxCell>
        <mxCell id="S6T1LPdI9VMm4ds6aZC9-12" value="" style="edgeStyle=orthogonalEdgeStyle;rounded=0;orthogonalLoop=1;jettySize=auto;html=1;" edge="1" parent="1" source="S6T1LPdI9VMm4ds6aZC9-1" target="S6T1LPdI9VMm4ds6aZC9-11">
          <mxGeometry relative="1" as="geometry" />
        </mxCell>
        <mxCell id="S6T1LPdI9VMm4ds6aZC9-1" value="&lt;div&gt;Inc(i);&lt;/div&gt;" style="rounded=0;whiteSpace=wrap;html=1;" vertex="1" parent="1">
          <mxGeometry x="230" y="390" width="70" height="30" as="geometry" />
        </mxCell>
        <mxCell id="S6T1LPdI9VMm4ds6aZC9-6" style="edgeStyle=orthogonalEdgeStyle;rounded=0;orthogonalLoop=1;jettySize=auto;html=1;exitX=0.5;exitY=1;exitDx=0;exitDy=0;" edge="1" parent="1" source="S6T1LPdI9VMm4ds6aZC9-3">
          <mxGeometry relative="1" as="geometry">
            <mxPoint x="266" y="350" as="targetPoint" />
            <mxPoint x="392.25" y="330" as="sourcePoint" />
            <Array as="points">
              <mxPoint x="386" y="350" />
            </Array>
          </mxGeometry>
        </mxCell>
        <mxCell id="S6T1LPdI9VMm4ds6aZC9-3" value="prevArr[i] := -1;" style="whiteSpace=wrap;html=1;" vertex="1" parent="1">
          <mxGeometry x="340" y="305" width="92.5" height="25" as="geometry" />
        </mxCell>
        <mxCell id="S6T1LPdI9VMm4ds6aZC9-9" value="" style="group" vertex="1" connectable="0" parent="1">
          <mxGeometry x="215" y="435" width="100" height="40" as="geometry" />
        </mxCell>
        <mxCell id="S6T1LPdI9VMm4ds6aZC9-10" value="" style="strokeWidth=2;html=1;shape=mxgraph.flowchart.loop_limit;whiteSpace=wrap;rotation=-180;" vertex="1" parent="S6T1LPdI9VMm4ds6aZC9-9">
          <mxGeometry width="100" height="40" as="geometry" />
        </mxCell>
        <mxCell id="S6T1LPdI9VMm4ds6aZC9-11" value="MainWhileIN2" style="text;whiteSpace=wrap;html=1;align=center;verticalAlign=middle;" vertex="1" parent="S6T1LPdI9VMm4ds6aZC9-9">
          <mxGeometry width="100" height="40" as="geometry" />
        </mxCell>
        <mxCell id="S6T1LPdI9VMm4ds6aZC9-17" value="" style="edgeStyle=orthogonalEdgeStyle;rounded=0;orthogonalLoop=1;jettySize=auto;html=1;" edge="1" parent="1" source="S6T1LPdI9VMm4ds6aZC9-13" target="S6T1LPdI9VMm4ds6aZC9-16">
          <mxGeometry relative="1" as="geometry" />
        </mxCell>
        <mxCell id="S6T1LPdI9VMm4ds6aZC9-13" value="&lt;div&gt;resLength := 0;&lt;/div&gt;&lt;div&gt;lastIndex := 0;&lt;/div&gt;&lt;div&gt;i := n - 1;&lt;/div&gt;" style="whiteSpace=wrap;html=1;" vertex="1" parent="1">
          <mxGeometry x="205" y="490" width="120" height="60" as="geometry" />
        </mxCell>
        <mxCell id="S6T1LPdI9VMm4ds6aZC9-15" style="edgeStyle=orthogonalEdgeStyle;rounded=0;orthogonalLoop=1;jettySize=auto;html=1;exitX=0.5;exitY=0;exitDx=0;exitDy=0;exitPerimeter=0;entryX=0.5;entryY=0;entryDx=0;entryDy=0;" edge="1" parent="1" source="S6T1LPdI9VMm4ds6aZC9-10" target="S6T1LPdI9VMm4ds6aZC9-13">
          <mxGeometry relative="1" as="geometry" />
        </mxCell>
        <mxCell id="S6T1LPdI9VMm4ds6aZC9-19" value="" style="edgeStyle=orthogonalEdgeStyle;rounded=0;orthogonalLoop=1;jettySize=auto;html=1;" edge="1" parent="1" source="S6T1LPdI9VMm4ds6aZC9-16" target="S6T1LPdI9VMm4ds6aZC9-18">
          <mxGeometry relative="1" as="geometry" />
        </mxCell>
        <mxCell id="S6T1LPdI9VMm4ds6aZC9-16" value="MainWhileIGE01&lt;div&gt;i &amp;gt;= 0&lt;br&gt;&lt;/div&gt;" style="strokeWidth=2;html=1;shape=mxgraph.flowchart.loop_limit;whiteSpace=wrap;" vertex="1" parent="1">
          <mxGeometry x="208.13" y="569" width="113.75" height="40" as="geometry" />
        </mxCell>
        <mxCell id="S6T1LPdI9VMm4ds6aZC9-21" value="true" style="edgeStyle=orthogonalEdgeStyle;rounded=0;orthogonalLoop=1;jettySize=auto;html=1;" edge="1" parent="1" source="S6T1LPdI9VMm4ds6aZC9-18" target="S6T1LPdI9VMm4ds6aZC9-20">
          <mxGeometry x="0.6667" y="15" relative="1" as="geometry">
            <mxPoint as="offset" />
          </mxGeometry>
        </mxCell>
        <mxCell id="S6T1LPdI9VMm4ds6aZC9-25" style="edgeStyle=orthogonalEdgeStyle;rounded=0;orthogonalLoop=1;jettySize=auto;html=1;exitX=1;exitY=0.5;exitDx=0;exitDy=0;" edge="1" parent="1">
          <mxGeometry relative="1" as="geometry">
            <mxPoint x="266" y="800" as="targetPoint" />
            <mxPoint x="296" y="665.0000000000001" as="sourcePoint" />
            <Array as="points">
              <mxPoint x="340" y="665" />
              <mxPoint x="340" y="800" />
            </Array>
          </mxGeometry>
        </mxCell>
        <mxCell id="S6T1LPdI9VMm4ds6aZC9-26" value="false" style="edgeLabel;html=1;align=center;verticalAlign=middle;resizable=0;points=[];" vertex="1" connectable="0" parent="S6T1LPdI9VMm4ds6aZC9-25">
          <mxGeometry x="-0.8356" relative="1" as="geometry">
            <mxPoint x="3" y="-8" as="offset" />
          </mxGeometry>
        </mxCell>
        <mxCell id="S6T1LPdI9VMm4ds6aZC9-18" value="(dArr[i] &amp;lt;&amp;gt; INF)" style="rhombus;whiteSpace=wrap;html=1;" vertex="1" parent="1">
          <mxGeometry x="230" y="630" width="70" height="70" as="geometry" />
        </mxCell>
        <mxCell id="S6T1LPdI9VMm4ds6aZC9-24" value="" style="edgeStyle=orthogonalEdgeStyle;rounded=0;orthogonalLoop=1;jettySize=auto;html=1;" edge="1" parent="1" source="S6T1LPdI9VMm4ds6aZC9-20" target="S6T1LPdI9VMm4ds6aZC9-23">
          <mxGeometry relative="1" as="geometry" />
        </mxCell>
        <mxCell id="S6T1LPdI9VMm4ds6aZC9-20" value="&lt;div&gt;resLength := i + 1;&lt;/div&gt;&lt;div&gt;lastIndex := pArr[i];&lt;/div&gt;&lt;div&gt;i := 0;&lt;/div&gt;" style="whiteSpace=wrap;html=1;" vertex="1" parent="1">
          <mxGeometry x="205" y="720" width="120" height="60" as="geometry" />
        </mxCell>
        <mxCell id="S6T1LPdI9VMm4ds6aZC9-30" value="" style="edgeStyle=orthogonalEdgeStyle;rounded=0;orthogonalLoop=1;jettySize=auto;html=1;" edge="1" parent="1" source="S6T1LPdI9VMm4ds6aZC9-23" target="S6T1LPdI9VMm4ds6aZC9-29">
          <mxGeometry relative="1" as="geometry" />
        </mxCell>
        <mxCell id="S6T1LPdI9VMm4ds6aZC9-23" value="Dec(i);" style="whiteSpace=wrap;html=1;strokeWidth=2;" vertex="1" parent="1">
          <mxGeometry x="235" y="820" width="60" height="20" as="geometry" />
        </mxCell>
        <mxCell id="S6T1LPdI9VMm4ds6aZC9-27" value="" style="group" vertex="1" connectable="0" parent="1">
          <mxGeometry x="215" y="860" width="100" height="40" as="geometry" />
        </mxCell>
        <mxCell id="S6T1LPdI9VMm4ds6aZC9-28" value="" style="strokeWidth=2;html=1;shape=mxgraph.flowchart.loop_limit;whiteSpace=wrap;rotation=-180;" vertex="1" parent="S6T1LPdI9VMm4ds6aZC9-27">
          <mxGeometry width="100" height="40" as="geometry" />
        </mxCell>
        <mxCell id="S6T1LPdI9VMm4ds6aZC9-29" value="MainWhileIGE01" style="text;whiteSpace=wrap;html=1;align=center;verticalAlign=middle;" vertex="1" parent="S6T1LPdI9VMm4ds6aZC9-27">
          <mxGeometry width="100" height="40" as="geometry" />
        </mxCell>
        <mxCell id="S6T1LPdI9VMm4ds6aZC9-36" value="" style="edgeStyle=orthogonalEdgeStyle;rounded=0;orthogonalLoop=1;jettySize=auto;html=1;" edge="1" parent="1" source="S6T1LPdI9VMm4ds6aZC9-32" target="S6T1LPdI9VMm4ds6aZC9-35">
          <mxGeometry relative="1" as="geometry">
            <Array as="points">
              <mxPoint x="337" y="990" />
              <mxPoint x="265" y="990" />
            </Array>
          </mxGeometry>
        </mxCell>
        <mxCell id="S6T1LPdI9VMm4ds6aZC9-32" value="&lt;div&gt;WriteLn(&#39;Вычёркиваний: &#39;, n - resLength);&lt;br&gt;&lt;/div&gt;Write(&#39;Итоговая последовательность: &#39;);" style="shape=parallelogram;perimeter=parallelogramPerimeter;whiteSpace=wrap;html=1;fixedSize=1;" vertex="1" parent="1">
          <mxGeometry x="205" y="920" width="265" height="60" as="geometry" />
        </mxCell>
        <mxCell id="S6T1LPdI9VMm4ds6aZC9-33" style="edgeStyle=orthogonalEdgeStyle;rounded=0;orthogonalLoop=1;jettySize=auto;html=1;exitX=0.5;exitY=1;exitDx=0;exitDy=0;entryX=0.5;entryY=0;entryDx=0;entryDy=0;" edge="1" parent="1" source="S6T1LPdI9VMm4ds6aZC9-29" target="S6T1LPdI9VMm4ds6aZC9-32">
          <mxGeometry relative="1" as="geometry">
            <Array as="points">
              <mxPoint x="265" y="910" />
              <mxPoint x="338" y="910" />
            </Array>
          </mxGeometry>
        </mxCell>
        <mxCell id="S6T1LPdI9VMm4ds6aZC9-38" value="" style="edgeStyle=orthogonalEdgeStyle;rounded=0;orthogonalLoop=1;jettySize=auto;html=1;" edge="1" parent="1" source="S6T1LPdI9VMm4ds6aZC9-35" target="S6T1LPdI9VMm4ds6aZC9-37">
          <mxGeometry relative="1" as="geometry" />
        </mxCell>
        <mxCell id="S6T1LPdI9VMm4ds6aZC9-35" value="&lt;div&gt;cur := 0;&lt;/div&gt;&lt;div&gt;i := lastIndex;&lt;/div&gt;" style="whiteSpace=wrap;html=1;" vertex="1" parent="1">
          <mxGeometry x="223.75" y="1010" width="82.5" height="30" as="geometry" />
        </mxCell>
        <mxCell id="S6T1LPdI9VMm4ds6aZC9-37" value="2" style="ellipse;whiteSpace=wrap;html=1;aspect=fixed;" vertex="1" parent="1">
          <mxGeometry x="250" y="1060" width="30" height="30" as="geometry" />
        </mxCell>
        <mxCell id="S6T1LPdI9VMm4ds6aZC9-44" value="" style="edgeStyle=orthogonalEdgeStyle;rounded=0;orthogonalLoop=1;jettySize=auto;html=1;" edge="1" parent="1" source="S6T1LPdI9VMm4ds6aZC9-39" target="S6T1LPdI9VMm4ds6aZC9-43">
          <mxGeometry relative="1" as="geometry" />
        </mxCell>
        <mxCell id="S6T1LPdI9VMm4ds6aZC9-39" value="2" style="ellipse;whiteSpace=wrap;html=1;aspect=fixed;" vertex="1" parent="1">
          <mxGeometry x="525" y="10" width="30" height="30" as="geometry" />
        </mxCell>
        <mxCell id="S6T1LPdI9VMm4ds6aZC9-46" value="" style="edgeStyle=orthogonalEdgeStyle;rounded=0;orthogonalLoop=1;jettySize=auto;html=1;" edge="1" parent="1" source="S6T1LPdI9VMm4ds6aZC9-43" target="S6T1LPdI9VMm4ds6aZC9-45">
          <mxGeometry relative="1" as="geometry" />
        </mxCell>
        <mxCell id="S6T1LPdI9VMm4ds6aZC9-43" value="MainWhileINotNeg&lt;div&gt;i &amp;lt;&amp;gt; -1&lt;br&gt;&lt;/div&gt;" style="strokeWidth=2;html=1;shape=mxgraph.flowchart.loop_limit;whiteSpace=wrap;" vertex="1" parent="1">
          <mxGeometry x="478.75" y="60" width="122.5" height="40" as="geometry" />
        </mxCell>
        <mxCell id="S6T1LPdI9VMm4ds6aZC9-51" value="" style="edgeStyle=orthogonalEdgeStyle;rounded=0;orthogonalLoop=1;jettySize=auto;html=1;" edge="1" parent="1" source="S6T1LPdI9VMm4ds6aZC9-45" target="S6T1LPdI9VMm4ds6aZC9-49">
          <mxGeometry relative="1" as="geometry" />
        </mxCell>
        <mxCell id="S6T1LPdI9VMm4ds6aZC9-45" value="&lt;div&gt;resArr[cur] := arr[i];&lt;/div&gt;&lt;div&gt;cur := cur + 1;&lt;/div&gt;&lt;div&gt;i := prevArr[i];&lt;/div&gt;" style="whiteSpace=wrap;html=1;strokeWidth=2;" vertex="1" parent="1">
          <mxGeometry x="480" y="120" width="120" height="60" as="geometry" />
        </mxCell>
        <mxCell id="S6T1LPdI9VMm4ds6aZC9-47" value="" style="group" vertex="1" connectable="0" parent="1">
          <mxGeometry x="485" y="200" width="110" height="40" as="geometry" />
        </mxCell>
        <mxCell id="S6T1LPdI9VMm4ds6aZC9-48" value="" style="strokeWidth=2;html=1;shape=mxgraph.flowchart.loop_limit;whiteSpace=wrap;rotation=-180;" vertex="1" parent="S6T1LPdI9VMm4ds6aZC9-47">
          <mxGeometry width="110.00000000000001" height="40" as="geometry" />
        </mxCell>
        <mxCell id="S6T1LPdI9VMm4ds6aZC9-49" value="MainWhileINotNeg" style="text;whiteSpace=wrap;html=1;align=center;verticalAlign=middle;" vertex="1" parent="S6T1LPdI9VMm4ds6aZC9-47">
          <mxGeometry width="110.00000000000001" height="40" as="geometry" />
        </mxCell>
        <mxCell id="S6T1LPdI9VMm4ds6aZC9-52" value="i := cur - 1;" style="whiteSpace=wrap;html=1;" vertex="1" parent="1">
          <mxGeometry x="505" y="260" width="70" height="30" as="geometry" />
        </mxCell>
        <mxCell id="S6T1LPdI9VMm4ds6aZC9-53" value="" style="edgeStyle=orthogonalEdgeStyle;rounded=0;orthogonalLoop=1;jettySize=auto;html=1;" edge="1" parent="1" source="S6T1LPdI9VMm4ds6aZC9-49" target="S6T1LPdI9VMm4ds6aZC9-52">
          <mxGeometry relative="1" as="geometry" />
        </mxCell>
        <mxCell id="S6T1LPdI9VMm4ds6aZC9-59" value="" style="edgeStyle=orthogonalEdgeStyle;rounded=0;orthogonalLoop=1;jettySize=auto;html=1;" edge="1" parent="1" source="S6T1LPdI9VMm4ds6aZC9-62" target="S6T1LPdI9VMm4ds6aZC9-58">
          <mxGeometry relative="1" as="geometry" />
        </mxCell>
        <mxCell id="S6T1LPdI9VMm4ds6aZC9-54" value="MainWhileIGE02&lt;div&gt;i &amp;gt;= 0&lt;br&gt;&lt;/div&gt;" style="strokeWidth=2;html=1;shape=mxgraph.flowchart.loop_limit;whiteSpace=wrap;" vertex="1" parent="1">
          <mxGeometry x="483.13" y="307.5" width="113.75" height="40" as="geometry" />
        </mxCell>
        <mxCell id="S6T1LPdI9VMm4ds6aZC9-55" value="" style="group" vertex="1" connectable="0" parent="1">
          <mxGeometry x="490.01" y="462.5" width="100" height="40" as="geometry" />
        </mxCell>
        <mxCell id="S6T1LPdI9VMm4ds6aZC9-56" value="" style="strokeWidth=2;html=1;shape=mxgraph.flowchart.loop_limit;whiteSpace=wrap;rotation=-180;" vertex="1" parent="S6T1LPdI9VMm4ds6aZC9-55">
          <mxGeometry width="100" height="40" as="geometry" />
        </mxCell>
        <mxCell id="S6T1LPdI9VMm4ds6aZC9-57" value="MainWhileIGE02" style="text;whiteSpace=wrap;html=1;align=center;verticalAlign=middle;" vertex="1" parent="S6T1LPdI9VMm4ds6aZC9-55">
          <mxGeometry width="100" height="40" as="geometry" />
        </mxCell>
        <mxCell id="S6T1LPdI9VMm4ds6aZC9-64" value="" style="edgeStyle=orthogonalEdgeStyle;rounded=0;orthogonalLoop=1;jettySize=auto;html=1;" edge="1" parent="1" source="S6T1LPdI9VMm4ds6aZC9-58" target="S6T1LPdI9VMm4ds6aZC9-57">
          <mxGeometry relative="1" as="geometry" />
        </mxCell>
        <mxCell id="S6T1LPdI9VMm4ds6aZC9-58" value="Dec(i);" style="whiteSpace=wrap;html=1;strokeWidth=2;" vertex="1" parent="1">
          <mxGeometry x="514.0699999999999" y="412.5" width="51.88" height="25" as="geometry" />
        </mxCell>
        <mxCell id="S6T1LPdI9VMm4ds6aZC9-63" value="" style="edgeStyle=orthogonalEdgeStyle;rounded=0;orthogonalLoop=1;jettySize=auto;html=1;" edge="1" parent="1" source="S6T1LPdI9VMm4ds6aZC9-54" target="S6T1LPdI9VMm4ds6aZC9-62">
          <mxGeometry relative="1" as="geometry">
            <mxPoint x="539.88" y="347.5" as="sourcePoint" />
            <mxPoint x="539.88" y="437.5" as="targetPoint" />
          </mxGeometry>
        </mxCell>
        <mxCell id="S6T1LPdI9VMm4ds6aZC9-62" value="Write(resArr[i], &#39; &#39;);" style="shape=parallelogram;perimeter=parallelogramPerimeter;whiteSpace=wrap;html=1;fixedSize=1;" vertex="1" parent="1">
          <mxGeometry x="470" y="367.5" width="140" height="20" as="geometry" />
        </mxCell>
        <mxCell id="S6T1LPdI9VMm4ds6aZC9-65" style="edgeStyle=orthogonalEdgeStyle;rounded=0;orthogonalLoop=1;jettySize=auto;html=1;exitX=0.5;exitY=1;exitDx=0;exitDy=0;entryX=0.5;entryY=0;entryDx=0;entryDy=0;entryPerimeter=0;" edge="1" parent="1" source="S6T1LPdI9VMm4ds6aZC9-52" target="S6T1LPdI9VMm4ds6aZC9-54">
          <mxGeometry relative="1" as="geometry" />
        </mxCell>
        <mxCell id="S6T1LPdI9VMm4ds6aZC9-67" value="" style="edgeStyle=orthogonalEdgeStyle;rounded=0;orthogonalLoop=1;jettySize=auto;html=1;" edge="1" parent="1" source="S6T1LPdI9VMm4ds6aZC9-57" target="JfuMzWa7tCH9gueAkN5g-2">
          <mxGeometry relative="1" as="geometry" />
        </mxCell>
        <mxCell id="S6T1LPdI9VMm4ds6aZC9-70" value="" style="edgeStyle=orthogonalEdgeStyle;rounded=0;orthogonalLoop=1;jettySize=auto;html=1;" edge="1" parent="1" source="S6T1LPdI9VMm4ds6aZC9-68" target="S6T1LPdI9VMm4ds6aZC9-69">
          <mxGeometry relative="1" as="geometry" />
        </mxCell>
        <mxCell id="S6T1LPdI9VMm4ds6aZC9-68" value="start FillManual" style="html=1;dashed=0;whiteSpace=wrap;shape=mxgraph.dfd.start" vertex="1" parent="1">
          <mxGeometry x="490.01" y="590" width="99.99" height="30" as="geometry" />
        </mxCell>
        <mxCell id="S6T1LPdI9VMm4ds6aZC9-72" value="" style="edgeStyle=orthogonalEdgeStyle;rounded=0;orthogonalLoop=1;jettySize=auto;html=1;" edge="1" parent="1" source="S6T1LPdI9VMm4ds6aZC9-69" target="S6T1LPdI9VMm4ds6aZC9-71">
          <mxGeometry relative="1" as="geometry" />
        </mxCell>
        <mxCell id="S6T1LPdI9VMm4ds6aZC9-69" value="arr" style="shape=parallelogram;perimeter=parallelogramPerimeter;whiteSpace=wrap;html=1;fixedSize=1;" vertex="1" parent="1">
          <mxGeometry x="506.51" y="640" width="67" height="20" as="geometry" />
        </mxCell>
        <mxCell id="S6T1LPdI9VMm4ds6aZC9-76" value="" style="edgeStyle=orthogonalEdgeStyle;rounded=0;orthogonalLoop=1;jettySize=auto;html=1;" edge="1" parent="1" source="S6T1LPdI9VMm4ds6aZC9-71" target="S6T1LPdI9VMm4ds6aZC9-75">
          <mxGeometry relative="1" as="geometry" />
        </mxCell>
        <mxCell id="S6T1LPdI9VMm4ds6aZC9-71" value="Writeln(&#39;Введите элементы&#39;);" style="shape=parallelogram;perimeter=parallelogramPerimeter;whiteSpace=wrap;html=1;fixedSize=1;" vertex="1" parent="1">
          <mxGeometry x="440.01" y="680" width="200" height="30" as="geometry" />
        </mxCell>
        <mxCell id="S6T1LPdI9VMm4ds6aZC9-78" value="" style="edgeStyle=orthogonalEdgeStyle;rounded=0;orthogonalLoop=1;jettySize=auto;html=1;" edge="1" parent="1" source="S6T1LPdI9VMm4ds6aZC9-75" target="S6T1LPdI9VMm4ds6aZC9-77">
          <mxGeometry relative="1" as="geometry" />
        </mxCell>
        <mxCell id="S6T1LPdI9VMm4ds6aZC9-75" value="&lt;div&gt;i := 0;&lt;/div&gt;" style="rounded=0;whiteSpace=wrap;html=1;" vertex="1" parent="1">
          <mxGeometry x="505.01" y="730" width="70" height="30" as="geometry" />
        </mxCell>
        <mxCell id="S6T1LPdI9VMm4ds6aZC9-83" value="" style="edgeStyle=orthogonalEdgeStyle;rounded=0;orthogonalLoop=1;jettySize=auto;html=1;" edge="1" parent="1" source="S6T1LPdI9VMm4ds6aZC9-77" target="S6T1LPdI9VMm4ds6aZC9-82">
          <mxGeometry relative="1" as="geometry" />
        </mxCell>
        <mxCell id="S6T1LPdI9VMm4ds6aZC9-77" value="FillManualWhile&lt;div&gt;i &amp;lt; length(arr)&lt;br&gt;&lt;/div&gt;" style="strokeWidth=2;html=1;shape=mxgraph.flowchart.loop_limit;whiteSpace=wrap;" vertex="1" parent="1">
          <mxGeometry x="483.13" y="780" width="113.75" height="40" as="geometry" />
        </mxCell>
        <mxCell id="S6T1LPdI9VMm4ds6aZC9-79" value="FillRandWhile" style="group" vertex="1" connectable="0" parent="1">
          <mxGeometry x="490.01" y="980" width="100" height="40" as="geometry" />
        </mxCell>
        <mxCell id="S6T1LPdI9VMm4ds6aZC9-80" value="" style="strokeWidth=2;html=1;shape=mxgraph.flowchart.loop_limit;whiteSpace=wrap;rotation=-180;" vertex="1" parent="S6T1LPdI9VMm4ds6aZC9-79">
          <mxGeometry width="100" height="40" as="geometry" />
        </mxCell>
        <mxCell id="S6T1LPdI9VMm4ds6aZC9-81" value="FillManualWhile" style="text;whiteSpace=wrap;html=1;align=center;verticalAlign=middle;" vertex="1" parent="S6T1LPdI9VMm4ds6aZC9-79">
          <mxGeometry width="100" height="40" as="geometry" />
        </mxCell>
        <mxCell id="S6T1LPdI9VMm4ds6aZC9-85" value="" style="edgeStyle=orthogonalEdgeStyle;rounded=0;orthogonalLoop=1;jettySize=auto;html=1;" edge="1" parent="1" source="S6T1LPdI9VMm4ds6aZC9-82" target="S6T1LPdI9VMm4ds6aZC9-84">
          <mxGeometry relative="1" as="geometry" />
        </mxCell>
        <mxCell id="S6T1LPdI9VMm4ds6aZC9-82" value="Write(i + 1, &#39;: &#39;);" style="shape=parallelogram;perimeter=parallelogramPerimeter;whiteSpace=wrap;html=1;fixedSize=1;" vertex="1" parent="1">
          <mxGeometry x="480.01" y="840" width="119.99" height="30" as="geometry" />
        </mxCell>
        <mxCell id="S6T1LPdI9VMm4ds6aZC9-87" value="" style="edgeStyle=orthogonalEdgeStyle;rounded=0;orthogonalLoop=1;jettySize=auto;html=1;" edge="1" parent="1" source="S6T1LPdI9VMm4ds6aZC9-84" target="S6T1LPdI9VMm4ds6aZC9-86">
          <mxGeometry relative="1" as="geometry" />
        </mxCell>
        <mxCell id="S6T1LPdI9VMm4ds6aZC9-84" value="Read(arr[i]);" style="shape=parallelogram;perimeter=parallelogramPerimeter;whiteSpace=wrap;html=1;fixedSize=1;" vertex="1" parent="1">
          <mxGeometry x="480.01" y="890" width="119.99" height="30" as="geometry" />
        </mxCell>
        <mxCell id="S6T1LPdI9VMm4ds6aZC9-88" value="" style="edgeStyle=orthogonalEdgeStyle;rounded=0;orthogonalLoop=1;jettySize=auto;html=1;" edge="1" parent="1" source="S6T1LPdI9VMm4ds6aZC9-86" target="S6T1LPdI9VMm4ds6aZC9-81">
          <mxGeometry relative="1" as="geometry" />
        </mxCell>
        <mxCell id="S6T1LPdI9VMm4ds6aZC9-86" value="&lt;div&gt;Inc(i);&lt;/div&gt;" style="rounded=0;whiteSpace=wrap;html=1;" vertex="1" parent="1">
          <mxGeometry x="505.01" y="935" width="70" height="30" as="geometry" />
        </mxCell>
        <mxCell id="S6T1LPdI9VMm4ds6aZC9-89" value="end FillManual" style="html=1;dashed=0;whiteSpace=wrap;shape=mxgraph.dfd.start" vertex="1" parent="1">
          <mxGeometry x="490.01" y="1040" width="99.99" height="30" as="geometry" />
        </mxCell>
        <mxCell id="S6T1LPdI9VMm4ds6aZC9-90" value="" style="edgeStyle=orthogonalEdgeStyle;rounded=0;orthogonalLoop=1;jettySize=auto;html=1;" edge="1" parent="1" source="S6T1LPdI9VMm4ds6aZC9-81" target="S6T1LPdI9VMm4ds6aZC9-89">
          <mxGeometry relative="1" as="geometry" />
        </mxCell>
        <mxCell id="S6T1LPdI9VMm4ds6aZC9-95" value="" style="edgeStyle=orthogonalEdgeStyle;rounded=0;orthogonalLoop=1;jettySize=auto;html=1;" edge="1" source="S6T1LPdI9VMm4ds6aZC9-109" target="S6T1LPdI9VMm4ds6aZC9-97" parent="1">
          <mxGeometry relative="1" as="geometry" />
        </mxCell>
        <mxCell id="S6T1LPdI9VMm4ds6aZC9-96" value="" style="edgeStyle=orthogonalEdgeStyle;rounded=0;orthogonalLoop=1;jettySize=auto;html=1;" edge="1" source="S6T1LPdI9VMm4ds6aZC9-97" target="S6T1LPdI9VMm4ds6aZC9-99" parent="1">
          <mxGeometry relative="1" as="geometry" />
        </mxCell>
        <mxCell id="S6T1LPdI9VMm4ds6aZC9-97" value="&lt;div&gt;i := 0;&lt;/div&gt;" style="rounded=0;whiteSpace=wrap;html=1;" vertex="1" parent="1">
          <mxGeometry x="685" y="670" width="70" height="30" as="geometry" />
        </mxCell>
        <mxCell id="S6T1LPdI9VMm4ds6aZC9-98" value="" style="edgeStyle=orthogonalEdgeStyle;rounded=0;orthogonalLoop=1;jettySize=auto;html=1;" edge="1" source="S6T1LPdI9VMm4ds6aZC9-99" parent="1">
          <mxGeometry relative="1" as="geometry">
            <mxPoint x="719.99" y="780" as="targetPoint" />
          </mxGeometry>
        </mxCell>
        <mxCell id="S6T1LPdI9VMm4ds6aZC9-99" value="FillRandWhile&lt;div&gt;i &amp;lt; length(arr)&lt;br&gt;&lt;/div&gt;" style="strokeWidth=2;html=1;shape=mxgraph.flowchart.loop_limit;whiteSpace=wrap;" vertex="1" parent="1">
          <mxGeometry x="663.12" y="720" width="113.75" height="40" as="geometry" />
        </mxCell>
        <mxCell id="S6T1LPdI9VMm4ds6aZC9-100" value="FillRandWhile" style="group" vertex="1" connectable="0" parent="1">
          <mxGeometry x="670" y="920" width="100" height="40" as="geometry" />
        </mxCell>
        <mxCell id="S6T1LPdI9VMm4ds6aZC9-101" value="" style="strokeWidth=2;html=1;shape=mxgraph.flowchart.loop_limit;whiteSpace=wrap;rotation=-180;" vertex="1" parent="S6T1LPdI9VMm4ds6aZC9-100">
          <mxGeometry width="100" height="40" as="geometry" />
        </mxCell>
        <mxCell id="S6T1LPdI9VMm4ds6aZC9-102" value="FillRandWhile" style="text;whiteSpace=wrap;html=1;align=center;verticalAlign=middle;" vertex="1" parent="S6T1LPdI9VMm4ds6aZC9-100">
          <mxGeometry width="100" height="40" as="geometry" />
        </mxCell>
        <mxCell id="S6T1LPdI9VMm4ds6aZC9-103" value="" style="edgeStyle=orthogonalEdgeStyle;rounded=0;orthogonalLoop=1;jettySize=auto;html=1;" edge="1" parent="1">
          <mxGeometry relative="1" as="geometry">
            <mxPoint x="719.99" y="810" as="sourcePoint" />
            <mxPoint x="719.99" y="830" as="targetPoint" />
          </mxGeometry>
        </mxCell>
        <mxCell id="S6T1LPdI9VMm4ds6aZC9-105" value="" style="edgeStyle=orthogonalEdgeStyle;rounded=0;orthogonalLoop=1;jettySize=auto;html=1;" edge="1" source="S6T1LPdI9VMm4ds6aZC9-106" target="S6T1LPdI9VMm4ds6aZC9-102" parent="1">
          <mxGeometry relative="1" as="geometry" />
        </mxCell>
        <mxCell id="S6T1LPdI9VMm4ds6aZC9-106" value="&lt;div&gt;Inc(i);&lt;/div&gt;" style="rounded=0;whiteSpace=wrap;html=1;" vertex="1" parent="1">
          <mxGeometry x="685" y="875" width="70" height="30" as="geometry" />
        </mxCell>
        <mxCell id="S6T1LPdI9VMm4ds6aZC9-107" value="end FillRand" style="html=1;dashed=0;whiteSpace=wrap;shape=mxgraph.dfd.start" vertex="1" parent="1">
          <mxGeometry x="670" y="1030" width="99.99" height="30" as="geometry" />
        </mxCell>
        <mxCell id="S6T1LPdI9VMm4ds6aZC9-108" value="" style="edgeStyle=orthogonalEdgeStyle;rounded=0;orthogonalLoop=1;jettySize=auto;html=1;" edge="1" source="S6T1LPdI9VMm4ds6aZC9-122" target="S6T1LPdI9VMm4ds6aZC9-107" parent="1">
          <mxGeometry relative="1" as="geometry" />
        </mxCell>
        <mxCell id="S6T1LPdI9VMm4ds6aZC9-109" value="Write(&#39;Полученный массив: &#39;);" style="shape=parallelogram;perimeter=parallelogramPerimeter;whiteSpace=wrap;html=1;fixedSize=1;" vertex="1" parent="1">
          <mxGeometry x="620" y="620" width="200" height="30" as="geometry" />
        </mxCell>
        <mxCell id="S6T1LPdI9VMm4ds6aZC9-113" value="" style="edgeStyle=orthogonalEdgeStyle;rounded=0;orthogonalLoop=1;jettySize=auto;html=1;" edge="1" parent="1" source="S6T1LPdI9VMm4ds6aZC9-114" target="S6T1LPdI9VMm4ds6aZC9-115">
          <mxGeometry relative="1" as="geometry" />
        </mxCell>
        <mxCell id="S6T1LPdI9VMm4ds6aZC9-114" value="start FillRand" style="html=1;dashed=0;whiteSpace=wrap;shape=mxgraph.dfd.start" vertex="1" parent="1">
          <mxGeometry x="670" y="470" width="99.99" height="30" as="geometry" />
        </mxCell>
        <mxCell id="S6T1LPdI9VMm4ds6aZC9-117" value="" style="edgeStyle=orthogonalEdgeStyle;rounded=0;orthogonalLoop=1;jettySize=auto;html=1;" edge="1" parent="1" source="S6T1LPdI9VMm4ds6aZC9-115" target="S6T1LPdI9VMm4ds6aZC9-116">
          <mxGeometry relative="1" as="geometry" />
        </mxCell>
        <mxCell id="S6T1LPdI9VMm4ds6aZC9-115" value="arr" style="shape=parallelogram;perimeter=parallelogramPerimeter;whiteSpace=wrap;html=1;fixedSize=1;" vertex="1" parent="1">
          <mxGeometry x="686.5" y="520" width="67" height="20" as="geometry" />
        </mxCell>
        <mxCell id="S6T1LPdI9VMm4ds6aZC9-118" value="" style="edgeStyle=orthogonalEdgeStyle;rounded=0;orthogonalLoop=1;jettySize=auto;html=1;" edge="1" parent="1" source="S6T1LPdI9VMm4ds6aZC9-116" target="S6T1LPdI9VMm4ds6aZC9-109">
          <mxGeometry relative="1" as="geometry" />
        </mxCell>
        <mxCell id="S6T1LPdI9VMm4ds6aZC9-116" value="Randomize;" style="rounded=0;whiteSpace=wrap;html=1;" vertex="1" parent="1">
          <mxGeometry x="678.49" y="560" width="83" height="20" as="geometry" />
        </mxCell>
        <mxCell id="S6T1LPdI9VMm4ds6aZC9-119" value="&lt;div&gt;arr[i] := random(100);&lt;/div&gt;" style="rounded=0;whiteSpace=wrap;html=1;" vertex="1" parent="1">
          <mxGeometry x="653.24" y="780" width="133.5" height="30" as="geometry" />
        </mxCell>
        <mxCell id="S6T1LPdI9VMm4ds6aZC9-121" value="" style="edgeStyle=orthogonalEdgeStyle;rounded=0;orthogonalLoop=1;jettySize=auto;html=1;" edge="1" parent="1" source="S6T1LPdI9VMm4ds6aZC9-120" target="S6T1LPdI9VMm4ds6aZC9-106">
          <mxGeometry relative="1" as="geometry">
            <Array as="points">
              <mxPoint x="720" y="870" />
              <mxPoint x="720" y="870" />
            </Array>
          </mxGeometry>
        </mxCell>
        <mxCell id="S6T1LPdI9VMm4ds6aZC9-120" value="Write(arr[i], &#39; &#39;);" style="shape=parallelogram;perimeter=parallelogramPerimeter;whiteSpace=wrap;html=1;fixedSize=1;" vertex="1" parent="1">
          <mxGeometry x="656.88" y="830" width="119.99" height="30" as="geometry" />
        </mxCell>
        <mxCell id="S6T1LPdI9VMm4ds6aZC9-123" value="" style="edgeStyle=orthogonalEdgeStyle;rounded=0;orthogonalLoop=1;jettySize=auto;html=1;" edge="1" parent="1" source="S6T1LPdI9VMm4ds6aZC9-102" target="S6T1LPdI9VMm4ds6aZC9-122">
          <mxGeometry relative="1" as="geometry">
            <mxPoint x="720" y="960" as="sourcePoint" />
            <mxPoint x="720" y="1010" as="targetPoint" />
          </mxGeometry>
        </mxCell>
        <mxCell id="S6T1LPdI9VMm4ds6aZC9-122" value="Writeln;" style="shape=parallelogram;perimeter=parallelogramPerimeter;whiteSpace=wrap;html=1;fixedSize=1;" vertex="1" parent="1">
          <mxGeometry x="660" y="980" width="119.99" height="30" as="geometry" />
        </mxCell>
      </root>
    </mxGraphModel>
  </diagram>
</mxfile>
